<svg xmlns="http://www.w3.org/2000/svg" viewBox="0 0 32 32">
  <rect width="32" height="32" rx="6" fill="#fbbf24"/>
  <g transform="translate(5.75 4) scale(0.333)" fill="#fff">
    <path d="M 18.601 72.001 L 3.601 72.001 Q 0.001 72.001 0.001 68.401 L 0.001 3.601 Q 0.001 0.001 3.601 0.001 L 14.001 0.001 Q 17.601 0.001 19.901 2.701 L 39.301 24.901 L 39.301 3.601 Q 39.301 0.001 42.901 0.001 L 57.901 0.001 Q 61.501 0.001 61.501 3.601 L 61.501 68.401 Q 61.501 72.001 57.901 72.001 L 42.901 72.001 Q 39.301 72.001 39.301 68.401 L 39.301 56.101 L 22.201 35.401 L 22.201 68.401 Q 22.201 72.001 18.601 72.001 Z"/>
  </g>
</svg>