<svg width="252.201" height="72.001" viewBox="0 0 252.201 72.001" xmlns="http://www.w3.org/2000/svg"><g id="svgGroup" stroke-linecap="round" fill-rule="evenodd" font-size="9pt" stroke="#fbbf24" stroke-width="0.25mm" fill="#fbbf24" style="stroke:#fbbf24;stroke-width:0.25mm;fill:#fbbf24"><path d="M 18.601 72.001 L 3.601 72.001 Q 0.001 72.001 0.001 68.401 L 0.001 3.601 Q 0.001 0.001 3.601 0.001 L 14.001 0.001 Q 17.601 0.001 19.901 2.701 L 39.301 24.901 L 39.301 3.601 Q 39.301 0.001 42.901 0.001 L 57.901 0.001 Q 61.501 0.001 61.501 3.601 L 61.501 68.401 Q 61.501 72.001 57.901 72.001 L 42.901 72.001 Q 39.301 72.001 39.301 68.401 L 39.301 56.101 L 22.201 35.401 L 22.201 68.401 Q 22.201 72.001 18.601 72.001 Z M 248.601 72.001 L 202.201 72.001 Q 198.601 72.001 198.601 68.401 L 198.601 3.601 Q 198.601 0.001 202.201 0.001 L 248.601 0.001 Q 252.201 0.001 252.201 3.601 L 252.201 15.301 Q 252.201 18.901 248.601 18.901 L 221.001 18.901 L 221.001 26.601 L 240.501 26.601 Q 244.101 26.601 244.101 30.201 L 244.101 40.901 Q 244.101 44.501 240.501 44.501 L 221.001 44.501 L 221.001 53.101 L 248.601 53.101 Q 252.201 53.101 252.201 56.701 L 252.201 68.401 Q 252.201 72.001 248.601 72.001 Z M 119.901 72.001 L 77.301 72.001 Q 73.701 72.001 73.701 68.401 L 73.701 56.501 Q 73.701 52.901 77.301 52.901 L 87.201 52.901 L 87.201 19.301 L 77.301 19.301 Q 73.701 19.301 73.701 15.701 L 73.701 3.601 Q 73.701 0.001 77.301 0.001 L 119.901 0.001 Q 123.501 0.001 123.501 3.601 L 123.501 15.701 Q 123.501 19.301 119.901 19.301 L 110.201 19.301 L 110.201 52.901 L 119.901 52.901 Q 123.501 52.901 123.501 56.501 L 123.501 68.401 Q 123.501 72.001 119.901 72.001 Z M 183.701 72.001 L 159.301 72.001 Q 146.701 72.001 140.701 67.001 Q 134.701 62.001 134.701 51.601 L 134.701 20.501 Q 134.701 10.001 140.701 5.001 Q 146.701 0.001 159.301 0.001 L 183.701 0.001 Q 187.301 0.001 187.301 3.601 L 187.301 15.701 Q 187.301 19.301 183.701 19.301 L 163.601 19.301 Q 157.501 19.301 157.501 24.301 L 157.501 48.101 Q 157.501 52.901 163.601 52.901 L 183.701 52.901 Q 187.301 52.901 187.301 56.501 L 187.301 68.401 Q 187.301 72.001 183.701 72.001 Z" vector-effect="non-scaling-stroke"/></g></svg>